# xmcd
#
# Track frame offsets: 
#        150
#        18298
#        31819
#        47819
#        64128
#        78749
#        97093
#        113933
#        132005
#        145691
#        160958
#        172925
#        186594
#        204483
#        219255
#        230514
#
# Disc length: 3289 seconds
#
# Revision: 1
# Processed by: cddbd v1.5.2PL0 Copyright (c) Steve Scherf et al.
# Submitted via: ExactAudioCopy v1.1
#
DISCID=dd0cd710
DTITLE=Conway Twitty - The Complete Warner Bros. And Elektra Chart Sin
DTITLE=gles
DYEAR=2015
DGENRE=Country
TTITLE0=The Clown
TTITLE1=Slow Hand
TTITLE2=We Did But Now You Don't (Single Version)
TTITLE3=The Rose
TTITLE4=Lost In The Feeling (Backing Vocal By Ricky Skaggs)
TTITLE5=Heartache Tonight (Backing Vocals By The Osmonds) (Single Vers
TTITLE5=ion)
TTITLE6=Three Time A Lady
TTITLE7=Somebody's Needin' Somebody
TTITLE8=I Don't Know A Thing About Love (Backing Vocal By Joni Lee)
TTITLE9=Ain't She Somethin' Else
TTITLE10=Don't Call Him A Cowboy
TTITLE11=Between Blue Eyes And Jeans
TTITLE12=The Legend And The Man
TTITLE13=You'll Never Know How Much I Needed You Today
TTITLE14=Desperado Love
TTITLE15=Fallin' For You For Years (Single Version)
EXTD=
EXTT0=
EXTT1=
EXTT2=
EXTT3=
EXTT4=
EXTT5=
EXTT6=
EXTT7=
EXTT8=
EXTT9=
EXTT10=
EXTT11=
EXTT12=
EXTT13=
EXTT14=
EXTT15=
PLAYORDER=
